<svg width="25" height="25" viewBox="0 0 25 25" fill="none" xmlns="http://www.w3.org/2000/svg">
<g clip-path="url(#clip0_1369_32)">
<path d="M24.4554 12.7987C24.4554 11.9563 24.3739 11.0867 24.238 10.2715H12.4717V15.0813H19.2108C18.9391 16.6302 18.0423 17.9889 16.7108 18.8584L20.7326 21.9834C23.0967 19.7824 24.4554 16.5758 24.4554 12.7987Z" fill="#4280EF"/>
<path d="M12.4714 24.9723C15.8409 24.9723 18.667 23.8582 20.7323 21.956L16.7105 18.8582C15.5964 19.6191 14.1562 20.0538 12.4714 20.0538C9.21051 20.0538 6.46595 17.8528 5.46051 14.918L1.33008 18.0973C3.44964 22.3093 7.74312 24.9723 12.4714 24.9723Z" fill="#34A353"/>
<path d="M5.46102 14.8905C4.94472 13.3416 4.94472 11.6568 5.46102 10.1079L1.33059 6.90137C-0.435717 10.434 -0.435717 14.5916 1.33059 18.097L5.46102 14.8905Z" fill="#F6B704"/>
<path d="M12.4714 4.97249C14.2377 4.94532 15.9768 5.62467 17.254 6.84749L20.8138 3.26054C18.5583 1.14097 15.5692 -0.000332459 12.4714 0.0268415C7.74312 0.0268415 3.44964 2.68988 1.33008 6.90184L5.46051 10.1084C6.46595 7.1464 9.21051 4.97249 12.4714 4.97249Z" fill="#E54335"/>
</g>
<defs>
<clipPath id="clip0_1369_32">
<rect width="25" height="25" fill="white"/>
</clipPath>
</defs>
</svg>
