<svg width="478" height="105" viewBox="0 0 478 105" fill="none" xmlns="http://www.w3.org/2000/svg"><path d="M2.92711 1.67025H64.1947C64.5921 1.61727 64.9965 1.65706 65.3759 1.78647C65.7553 1.91587 66.0993 2.13136 66.3808 2.41591C66.6623 2.70047 66.8735 3.0463 66.9978 3.42612C67.1221 3.80593 67.1561 4.20933 67.0971 4.60447V11.5834C67.1598 11.9786 67.1286 12.3829 67.0061 12.7639C66.8835 13.145 66.673 13.4921 66.3915 13.7774C66.1099 14.0627 65.7651 14.2783 65.3848 14.4068C65.0045 14.5354 64.5992 14.5733 64.2015 14.5176H13.5624V46.3426H56.106C56.503 46.2908 56.9066 46.3315 57.2851 46.4614C57.6636 46.5913 58.0067 46.8069 58.2874 47.0913C58.568 47.3758 58.7786 47.7212 58.9025 48.1004C59.0265 48.4796 59.0604 48.8823 59.0016 49.2768V55.7005C59.0643 56.0957 59.0332 56.5 58.9106 56.8811C58.7881 57.2621 58.5776 57.6092 58.296 57.8945C58.0145 58.1798 57.6697 58.3954 57.2893 58.524C56.909 58.6525 56.5037 58.6905 56.106 58.6347H13.5624V90.5929H66.6439C67.0409 90.5411 67.4445 90.5817 67.823 90.7117C68.2015 90.8416 68.5446 91.0572 68.8253 91.3416C69.1059 91.626 69.3165 91.9715 69.4405 92.3507C69.5644 92.7299 69.5983 93.1326 69.5395 93.5271V100.558C69.6022 100.953 69.5711 101.357 69.4485 101.739C69.326 102.12 69.1155 102.467 68.8339 102.752C68.5524 103.037 68.2076 103.253 67.8273 103.381C67.4469 103.51 67.0416 103.548 66.6439 103.492H2.92711C2.52939 103.548 2.12411 103.51 1.74378 103.381C1.36345 103.253 1.01866 103.037 0.737104 102.752C0.455544 102.467 0.245048 102.12 0.122509 101.739C-2.9297e-05 101.357 -0.0311969 100.953 0.031508 100.558V4.55255C-0.0255635 4.16065 0.0100023 3.76089 0.135374 3.3851C0.260745 3.0093 0.472459 2.66786 0.753657 2.38795C1.03486 2.10804 1.37777 1.8974 1.7551 1.7728C2.13243 1.6482 2.53375 1.61309 2.92711 1.67025ZM74.1208 74.5585C74.1208 62.8736 79.6628 54.4704 90.6991 49.2791C86.6723 47.3816 83.2945 44.3463 80.9862 40.551C78.6778 36.7557 77.5407 32.3679 77.7165 27.9338C77.5806 24.1085 78.3139 20.302 79.8617 16.7986C81.4094 13.2952 83.7316 10.1853 86.6548 7.7012C92.6046 2.58362 100.448 0.016552 110.184 0C119.873 0 127.712 2.57986 133.603 7.68766C136.511 10.182 138.819 13.295 140.357 16.7968C141.896 20.2987 142.625 24.1 142.491 27.9202C142.661 32.3532 141.521 36.7383 139.213 40.5324C136.906 44.3265 133.532 47.3629 129.509 49.2656C134.439 51.4643 138.644 55.0074 141.64 59.4857C144.555 63.9517 146.067 69.1823 145.983 74.5089C146.131 78.6979 145.317 82.8654 143.605 86.6941C141.892 90.5228 139.325 93.9119 136.1 96.6035C129.508 102.218 120.886 105.016 110.234 105C99.4494 105 90.7445 102.201 84.1195 96.6035C80.8613 93.9442 78.2638 90.571 76.5295 86.7471C74.7951 82.9232 73.9708 78.752 74.1208 74.5585ZM93.7443 87.5594C98.3582 91.3295 104.212 93.2598 110.173 92.9764C116.056 93.2633 121.837 91.3715 126.402 87.6655C128.423 85.9221 130.024 83.7485 131.087 81.3055C132.15 78.8625 132.649 76.2126 132.545 73.5519C132.625 70.9902 132.113 68.4445 131.048 66.1116C129.982 63.7786 128.393 61.7208 126.402 60.0973C121.777 56.5214 116.021 54.7099 110.173 54.9895C104.233 54.7126 98.3842 56.5201 93.6446 60.0973C91.6124 61.6933 89.9845 63.7421 88.8917 66.0788C87.7989 68.4156 87.2718 70.9752 87.3527 73.5519C87.2793 76.2182 87.8179 78.866 88.9276 81.2935C90.0372 83.721 91.6885 85.8641 93.7556 87.5594H93.7443ZM90.7105 28.9833C90.6384 31.1653 91.0847 33.3335 92.0132 35.3111C92.9416 37.2887 94.3258 39.0199 96.0531 40.3636C100.131 43.3601 105.123 44.8607 110.184 44.6114C115.182 44.8464 120.107 43.3449 124.116 40.3636C125.822 39.0066 127.185 37.2703 128.095 35.294C129.006 33.3177 129.439 31.1564 129.359 28.9833C129.446 26.6917 129.021 24.4094 128.115 22.3015C127.208 20.1936 125.842 18.3128 124.116 16.795C120.216 13.5752 115.244 11.9312 110.184 12.1883C105.065 11.9322 100.031 13.5723 96.0531 16.7928C94.3007 18.2941 92.9104 20.1694 91.9854 22.2795C91.0605 24.3896 90.6247 26.6824 90.7105 28.9833Z" fill="url(#paint0_linear_1_104)"/><path d="M232.5 82.0001H223.275L223.2 47.2001L205.95 76.0001H201.6L184.35 47.6501V82.0001H175.05V29.5001H183.075L203.925 64.3001L224.4 29.5001H232.425L232.5 82.0001Z" fill="url(#paint1_linear_1_104)"/><path d="M261.081 41.5001C272.631 41.5001 279.306 46.9751 279.306 58.5251V82.0001H270.456V77.1251C268.206 80.5751 263.856 82.5251 257.856 82.5251C248.706 82.5251 242.931 77.5001 242.931 70.5251C242.931 63.8501 247.431 58.6001 259.581 58.6001H269.931V58.0001C269.931 52.5251 266.631 49.3001 259.956 49.3001C255.456 49.3001 250.806 50.8001 247.806 53.2751L244.131 46.4501C248.406 43.1501 254.631 41.5001 261.081 41.5001ZM259.806 75.7001C264.381 75.7001 268.356 73.6001 269.931 69.4751V64.8251H260.256C253.881 64.8251 252.156 67.2251 252.156 70.1501C252.156 73.5251 255.006 75.7001 259.806 75.7001Z" fill="url(#paint2_linear_1_104)"/><path d="M300.262 47.8001C302.962 43.6001 307.837 41.5001 314.512 41.5001V50.4251C313.687 50.2751 313.012 50.2001 312.337 50.2001C305.212 50.2001 300.712 54.4001 300.712 62.5751V82.0001H291.337V41.9501H300.262V47.8001Z" fill="url(#paint3_linear_1_104)"/><path d="M352.69 82.0001L338.815 64.8251L331.84 71.4251V82.0001H322.465V26.3501H331.84V59.9501L351.265 41.9501H362.515L345.79 58.7501L364.09 82.0001H352.69Z" fill="url(#paint4_linear_1_104)"/><path d="M406.112 62.2001C406.112 62.9501 406.037 64.0751 405.962 64.9751H374.537C375.662 70.8251 380.537 74.5751 387.512 74.5751C392.012 74.5751 395.537 73.1501 398.387 70.2251L403.412 76.0001C399.812 80.2751 394.187 82.5251 387.287 82.5251C373.862 82.5251 365.162 73.9001 365.162 61.9751C365.162 50.0501 373.937 41.5001 385.862 41.5001C397.562 41.5001 406.112 49.6751 406.112 62.2001ZM385.862 49.0001C379.787 49.0001 375.362 52.9001 374.462 58.7501H397.187C396.437 52.9751 392.012 49.0001 385.862 49.0001Z" fill="url(#paint5_linear_1_104)"/><path d="M436.567 73.1501L439.192 79.8251C436.942 81.6251 433.567 82.5251 430.192 82.5251C421.417 82.5251 416.392 77.8751 416.392 69.0251V49.7501H409.792V42.2501H416.392V33.1001H425.767V42.2501H436.492V49.7501H425.767V68.8001C425.767 72.7001 427.717 74.8001 431.317 74.8001C433.267 74.8001 435.142 74.2751 436.567 73.1501Z" fill="url(#paint6_linear_1_104)"/><path d="M459.279 82.5251C452.604 82.5251 445.929 80.5751 442.329 78.0251L445.929 70.9001C449.454 73.2251 454.854 74.8751 459.879 74.8751C465.804 74.8751 468.279 73.2251 468.279 70.4501C468.279 62.8001 443.529 70.0001 443.529 54.0251C443.529 46.4501 450.354 41.5001 461.154 41.5001C466.479 41.5001 472.554 42.7751 476.154 44.9501L472.554 52.0751C468.729 49.8251 464.904 49.0751 461.079 49.0751C455.379 49.0751 452.679 50.9501 452.679 53.5751C452.679 61.6751 477.429 54.4751 477.429 70.1501C477.429 77.6501 470.529 82.5251 459.279 82.5251Z" fill="url(#paint7_linear_1_104)"/><defs><linearGradient id="paint0_linear_1_104" x1="133.833" y1="94.2308" x2="-6.39063" y2="48.7208" gradientUnits="userSpaceOnUse"><stop stop-color="#FE89CE"/><stop offset="1" stop-color="#30D5F1"/></linearGradient><linearGradient id="paint1_linear_1_104" x1="188.831" y1="24" x2="470.655" y2="87.8285" gradientUnits="userSpaceOnUse"><stop stop-color="white"/><stop offset="1" stop-color="#A6CBF7"/></linearGradient><linearGradient id="paint2_linear_1_104" x1="188.831" y1="24" x2="470.655" y2="87.8285" gradientUnits="userSpaceOnUse"><stop stop-color="white"/><stop offset="1" stop-color="#A6CBF7"/></linearGradient><linearGradient id="paint3_linear_1_104" x1="188.831" y1="24" x2="470.655" y2="87.8285" gradientUnits="userSpaceOnUse"><stop stop-color="white"/><stop offset="1" stop-color="#A6CBF7"/></linearGradient><linearGradient id="paint4_linear_1_104" x1="188.831" y1="24" x2="470.655" y2="87.8285" gradientUnits="userSpaceOnUse"><stop stop-color="white"/><stop offset="1" stop-color="#A6CBF7"/></linearGradient><linearGradient id="paint5_linear_1_104" x1="188.831" y1="24" x2="470.655" y2="87.8285" gradientUnits="userSpaceOnUse"><stop stop-color="white"/><stop offset="1" stop-color="#A6CBF7"/></linearGradient><linearGradient id="paint6_linear_1_104" x1="188.831" y1="24" x2="470.655" y2="87.8285" gradientUnits="userSpaceOnUse"><stop stop-color="white"/><stop offset="1" stop-color="#A6CBF7"/></linearGradient><linearGradient id="paint7_linear_1_104" x1="188.831" y1="24" x2="470.655" y2="87.8285" gradientUnits="userSpaceOnUse"><stop stop-color="white"/><stop offset="1" stop-color="#A6CBF7"/></linearGradient></defs></svg>