<?xml version="1.0" encoding="UTF-8"?>
<svg width="743px" height="286px" viewBox="0 0 743 286" version="1.1" xmlns="http://www.w3.org/2000/svg" xmlns:xlink="http://www.w3.org/1999/xlink">
    <title>Logotype</title>
    <g id="Page-1" stroke="none" stroke-width="1" fill="none" fill-rule="evenodd">
        <g id="Funding/Light" transform="translate(-143.000000, -143.000000)">
            <g id="Logotype" transform="translate(143.699772, 143.537747)">
                <path d="M316.56288,216.455572 L316.56288,188.185672 L345.83268,188.185672 L345.83268,181.822672 L316.56288,181.822672 L316.56288,164.006272 L351.55938,164.006272 L351.55938,157.552372 L309.29088,157.552372 L309.29088,216.455572 L316.56288,216.455572 Z M375.356418,217.364572 C381.719418,217.364572 386.476518,214.789072 389.627718,209.638072 L389.627718,209.638072 L389.627718,216.455572 L396.536118,216.455572 L396.536118,172.187272 L389.627718,172.187272 L389.627718,196.821172 C389.627718,201.063172 388.446018,204.426472 386.082618,206.911072 C383.719218,209.395672 380.719518,210.637972 377.083518,210.637972 C369.508518,210.637972 365.721018,206.456572 365.721018,198.093772 L365.721018,198.093772 L365.721018,172.187272 L358.812618,172.187272 L358.812618,199.548172 C358.812618,204.820372 360.221568,209.107822 363.039468,212.410522 C365.857368,215.713222 369.963018,217.364572 375.356418,217.364572 Z M418.606056,216.455572 L418.606056,191.639872 C418.606056,187.700872 419.908956,184.443622 422.514756,181.868122 C425.120556,179.292622 428.241456,178.004872 431.877456,178.004872 C435.877056,178.004872 438.740406,179.065372 440.467506,181.186372 C442.194606,183.307372 443.058156,186.428272 443.058156,190.549072 L443.058156,190.549072 L443.058156,216.455572 L449.966556,216.455572 L449.966556,189.458272 C449.966556,183.701272 448.603056,179.232022 445.876056,176.050522 C443.149056,172.869022 439.088856,171.278272 433.695456,171.278272 C426.968856,171.278272 421.939056,173.944672 418.606056,179.277472 L418.606056,179.277472 L418.606056,172.187272 L411.697656,172.187272 L411.697656,216.455572 L418.606056,216.455572 Z M483.308094,217.364572 C486.701694,217.364572 489.777144,216.622222 492.534444,215.137522 C495.291744,213.652822 497.518794,211.577272 499.215594,208.910872 L499.215594,208.910872 L499.215594,216.455572 L506.123994,216.455572 L506.123994,156.643372 L499.215594,156.643372 L499.215594,179.822872 C497.518794,177.156472 495.276594,175.065772 492.488994,173.550772 C489.701394,172.035772 486.641094,171.278272 483.308094,171.278272 C477.248094,171.278272 472.172844,173.520472 468.082344,178.004872 C463.991844,182.489272 461.946594,187.943272 461.946594,194.366872 C461.946594,200.729872 463.991844,206.153572 468.082344,210.637972 C472.172844,215.122372 477.248094,217.364572 483.308094,217.364572 Z M484.217094,210.637972 C479.914494,210.637972 476.308794,209.077522 473.399994,205.956622 C470.491194,202.835722 469.036794,198.972472 469.036794,194.366872 C469.036794,189.761272 470.491194,185.882872 473.399994,182.731672 C476.308794,179.580472 479.914494,178.004872 484.217094,178.004872 C488.459094,178.004872 492.019344,179.580472 494.897844,182.731672 C497.776344,185.882872 499.215594,189.761272 499.215594,194.366872 C499.215594,199.093672 497.776344,202.987222 494.897844,206.047522 C492.019344,209.107822 488.459094,210.637972 484.217094,210.637972 Z M524.830632,164.824372 C526.103232,164.824372 527.178882,164.369872 528.057582,163.460872 C528.936282,162.551872 529.375632,161.491372 529.375632,160.279372 C529.375632,159.006772 528.936282,157.915972 528.057582,157.006972 C527.178882,156.097972 526.103232,155.643472 524.830632,155.643472 C523.558032,155.643472 522.482382,156.097972 521.603682,157.006972 C520.724982,157.915972 520.285632,159.006772 520.285632,160.279372 C520.285632,161.491372 520.724982,162.551872 521.603682,163.460872 C522.482382,164.369872 523.558032,164.824372 524.830632,164.824372 Z M528.193932,216.455572 L528.193932,172.187272 L521.285532,172.187272 L521.285532,216.455572 L528.193932,216.455572 Z M550.26387,216.455572 L550.26387,191.639872 C550.26387,187.700872 551.56677,184.443622 554.17257,181.868122 C556.77837,179.292622 559.89927,178.004872 563.53527,178.004872 C567.53487,178.004872 570.39822,179.065372 572.12532,181.186372 C573.85242,183.307372 574.71597,186.428272 574.71597,190.549072 L574.71597,190.549072 L574.71597,216.455572 L581.62437,216.455572 L581.62437,189.458272 C581.62437,183.701272 580.26087,179.232022 577.53387,176.050522 C574.80687,172.869022 570.74667,171.278272 565.35327,171.278272 C558.62667,171.278272 553.59687,173.944672 550.26387,179.277472 L550.26387,179.277472 L550.26387,172.187272 L543.35547,172.187272 L543.35547,216.455572 L550.26387,216.455572 Z M615.329508,229.817872 C616.783908,229.817872 618.359508,229.651222 620.056308,229.317922 C621.753108,228.984622 623.692308,228.287722 625.873908,227.227222 C628.055508,226.166722 629.994708,224.833522 631.691508,223.227622 C633.388308,221.621722 634.827558,219.364372 636.009258,216.455572 C637.190958,213.546772 637.781808,210.244072 637.781808,206.547472 L637.781808,206.547472 L637.781808,172.187272 L630.873408,172.187272 L630.873408,179.822872 C627.358608,174.126472 622.056108,171.278272 614.965908,171.278272 C608.845308,171.278272 603.754908,173.308372 599.694708,177.368572 C595.634508,181.428772 593.604408,186.519172 593.604408,192.639772 C593.604408,198.820972 595.634508,203.971972 599.694708,208.092772 C603.754908,212.213572 608.845308,214.273972 614.965908,214.273972 C618.359508,214.273972 621.434958,213.546772 624.192258,212.092372 C626.949558,210.637972 629.176608,208.547272 630.873408,205.820272 L630.873408,205.820272 L630.873408,207.729172 C630.873408,210.516772 630.388608,212.986222 629.419008,215.137522 C628.449408,217.288822 627.313158,218.894722 626.010258,219.955222 C624.707358,221.015722 623.222658,221.879272 621.556158,222.545872 C619.889658,223.212472 618.571608,223.621522 617.602008,223.773022 C616.632408,223.924522 615.814308,224.000272 615.147708,224.000272 C609.572508,224.000272 604.936608,222.151972 601.240008,218.455372 L601.240008,218.455372 L597.785808,223.000372 C602.452008,227.545372 608.299908,229.817872 615.329508,229.817872 Z M615.602208,207.547372 C611.299608,207.547372 607.739358,206.199022 604.921458,203.502322 C602.103558,200.805622 600.694608,197.336272 600.694608,193.094272 C600.694608,188.670472 602.103558,185.049622 604.921458,182.231722 C607.739358,179.413822 611.299608,178.004872 615.602208,178.004872 C619.904808,178.004872 623.449908,179.413822 626.237508,182.231722 C629.025108,185.049622 630.418908,188.670472 630.418908,193.094272 C630.418908,197.336272 629.025108,200.805622 626.237508,203.502322 C623.449908,206.199022 619.904808,207.547372 615.602208,207.547372 Z" id="Funding" fill="#FFFFFF" fill-rule="nonzero"></path>
                <path d="M502.937851,69.7709049 C520.817335,69.7709049 534.911184,83.5363208 534.911184,100.845366 C534.911184,118.154411 520.817335,131.867969 502.937851,131.867969 C485.156322,131.867969 471.062472,118.154411 471.062472,100.845366 C471.062472,83.5363208 485.156322,69.7709049 502.937851,69.7709049 Z M712.604323,69.7709049 C728.82435,69.7709049 741.598702,83.6285128 741.598702,100.609124 C741.598702,100.780937 741.597496,100.952939 741.595229,101.124478 L741.585395,101.637051 C741.523907,104.101435 741.270268,106.330789 741.270268,106.330789 L741.270268,106.330789 L697.945797,106.330789 C699.835732,114.558924 706.646415,118.488607 714.50002,118.488607 C720.267781,118.488607 726.225688,116.829152 730.627856,113.850198 L730.627856,113.850198 L736.585763,125.293528 C729.91913,129.695696 722.157717,131.867969 714.402066,131.867969 C697.000829,131.867969 681.725769,120.516831 681.725769,100.845366 C681.725769,83.6285128 695.059035,69.7709049 712.604323,69.7709049 Z M634.233644,70.9999393 L645.296682,101.648013 C647.56691,107.888258 649.502942,114.088169 649.739184,114.889087 C649.817184,114.251319 651.122798,110.011088 652.748307,105.374508 L652.977107,104.725294 C653.2078,104.074152 653.4439,103.418197 653.68294,102.766139 L653.922869,102.115702 L653.922869,102.115702 L654.043397,101.792063 L665.112197,70.9999393 L681.003791,70.9999393 L657.500596,130.78068 L641.747291,130.78068 L618.244096,70.9999393 L634.233644,70.9999393 Z M564.443158,56.1022906 L564.443158,71.0028203 L580.899428,71.0028203 L580.899428,83.8636024 L564.443158,83.8636024 L564.443158,115.600693 L580.766902,115.600693 L580.78995,130.674083 L548.390229,130.674083 L548.401753,83.8636024 L539.706896,83.8636024 L539.706896,71.0028203 L548.401753,71.0028203 L548.401753,56.1022906 L564.443158,56.1022906 Z M440.390775,70.5873802 C455.930886,70.5873802 461.347166,80.6017347 461.347166,96.7353322 L461.347166,130.661983 L445.56505,130.661983 L445.56505,98.7405079 C445.56505,90.1436052 443.329394,85.5512919 435.320216,85.5512919 C427.432039,85.5512919 422.125238,91.9067769 422.125238,100.860924 L422.125238,130.661983 L406.343122,130.661983 L406.343122,71.76859 L421.773756,71.76859 L421.773756,79.6567668 C426.487071,73.1802798 433.1998,70.5873802 440.390775,70.5873802 Z M367.924993,53.3106021 L367.924993,67.6406939 L326.778557,67.6406939 L326.778557,83.3882374 L361.874894,83.3882374 L361.874894,97.5800412 L326.778557,97.5800412 L326.778557,130.642392 L310.034188,130.642392 L310.034188,53.3106021 L367.924993,53.3106021 Z M393.92659,70.9999393 L393.92659,130.642392 L377.942805,130.642392 L377.942805,70.9999393 L393.92659,70.9999393 Z M608.555295,70.9999393 L608.555295,130.642392 L592.571509,130.642392 L592.571509,70.9999393 L608.555295,70.9999393 Z M502.937851,84.5734807 C494.000991,84.5734807 487.2825,91.5282136 487.2825,100.845366 C487.2825,110.254711 494.000991,117.065394 502.937851,117.065394 C511.880474,117.065394 518.547107,110.254711 518.547107,100.845366 C518.547107,91.5282136 511.880474,84.5734807 502.937851,84.5734807 Z M712.131839,83.1560289 C705.228964,83.1560289 699.224961,88.1689681 697.709555,95.6883769 L697.709555,95.6883769 L726.559884,95.6883769 C725.378675,88.1689681 719.420767,83.1560289 712.131839,83.1560289 Z M608.555295,52.7574502 L608.555295,65.3416562 L592.571509,65.3416562 L592.571509,52.7574502 L608.555295,52.7574502 Z M393.92659,52.8496421 L393.92659,65.2379402 L377.942805,65.2379402 L377.942805,52.8496421 L393.92659,52.8496421 Z" id="Finotive" fill="#FFFFFE"></path>
                <path d="M238.241377,0 L238.241377,285 L0,285 L0,0 L238.241377,0 Z M227.541345,10.6942703 L10.7057943,10.6942703 L10.7057943,274.299968 L227.541345,274.299968 L227.541345,10.6942703 Z M143.030104,23.0134244 L171.252376,51.2472201 L79.4233957,142.563382 L143.358538,206.809672 L157.100906,193.268974 L106.458696,142.38476 L185.035077,64.1944321 L213.297683,92.4167037 L162.983907,142.47119 L213.626117,193.384214 L143.13382,263.294549 L22.9442805,142.511524 L143.030104,23.0134244 Z M143.007056,38.1386721 L38.0810521,142.546096 L143.185678,248.175064 L198.483583,193.326594 L147.852897,142.436618 L198.132101,92.3994177 L185.023553,79.3023938 L121.595467,142.419332 L172.272249,193.34388 L143.283632,221.911872 L64.2866241,142.52881 L156.098318,51.2299341 L143.007056,38.1386721 Z" id="Mark" fill="#00C992"></path>
            </g>
        </g>
    </g>
</svg>