<svg width="139" height="35" viewBox="0 0 139 35" fill="none" xmlns="http://www.w3.org/2000/svg">
<path d="M46.0273 27.3218H49.8031V18.6258H58.9157V15.3563H49.8031V10.9477H60.5927V7.64648H46.0273V27.3218Z" fill="white"/>
<path d="M63.4766 10.9477H70.2899V27.3218H74.0657V10.9477H80.879V7.64648H63.4766V10.9477Z" fill="white"/>
<path d="M95.8194 17.5131L88.8637 7.70977L88.8162 7.64648H85.5625V27.3218H89.3383V14.2805L90.8676 16.6536L95.6665 23.4985L95.793 23.6778L100.666 16.6799C101.335 15.7307 101.873 14.9239 102.269 14.2805V27.3165H106.045V7.64648H102.791L95.8194 17.5131Z" fill="white"/>
<path d="M129.112 10.2942C127.145 8.34297 124.661 7.35156 121.729 7.35156C118.792 7.35156 116.308 8.34297 114.341 10.2942C112.379 12.2506 111.383 14.6659 111.383 17.4872C111.383 20.3243 112.379 22.7554 114.341 24.7118C116.303 26.663 118.792 27.6544 121.729 27.6544C124.667 27.6544 127.15 26.663 129.112 24.7118C131.074 22.7606 132.071 20.3296 132.071 17.4872C132.071 14.6659 131.074 12.2453 129.112 10.2942ZM126.307 22.2333C125.089 23.5411 123.559 24.2003 121.761 24.2003C119.942 24.2003 118.397 23.5358 117.168 22.2333C115.939 20.9255 115.312 19.3276 115.312 17.4819C115.312 15.6415 115.934 14.0489 117.168 12.7463C118.397 11.449 119.942 10.7899 121.761 10.7899C123.559 10.7899 125.089 11.449 126.312 12.741C127.535 14.0383 128.152 15.6309 128.152 17.4766C128.147 19.3276 127.525 20.9255 126.307 22.2333Z" fill="white"/>
<path d="M4.1133 21.6159L17.4974 8.23188V0L0 17.5026L4.1133 21.6159Z" fill="white"/>
<path d="M17.4961 34.9956V23.5996L11.8008 29.3002L17.4961 34.9956Z" fill="white"/>
<path d="M17.4967 11.6973L5.84766 23.3464L10.0612 27.5599L17.4967 20.1243V11.6973Z" fill="white"/>
<path d="M19.6914 0V8.23188L28.9569 17.4974L19.6914 26.7681V35L37.1888 17.4974L19.6914 0Z" fill="white"/>
<path d="M135.368 0.632812C133.454 0.632812 131.93 2.11993 131.93 3.97092C131.93 5.86409 133.454 7.34594 135.368 7.34594C137.298 7.34594 138.785 5.85882 138.785 3.97092C138.785 2.11466 137.303 0.632812 135.368 0.632812ZM135.389 6.63402C133.886 6.63402 132.784 5.45276 132.784 3.97092C132.784 2.50489 133.881 1.30782 135.368 1.30782C136.855 1.30782 137.931 2.51017 137.931 3.99201C137.931 5.45276 136.855 6.63402 135.389 6.63402Z" fill="white"/>
<path d="M136.144 4.07032V4.02813C136.55 3.90684 136.835 3.62208 136.835 3.25294C136.835 2.92598 136.693 2.66231 136.508 2.51992C136.265 2.37754 135.981 2.27734 135.348 2.27734C134.799 2.27734 134.372 2.31953 134.066 2.37754V5.71564H134.842V4.37091H135.205C135.633 4.37091 135.838 4.53439 135.896 4.89826C135.997 5.28322 136.06 5.58908 136.16 5.71037H136.993C136.914 5.58908 136.851 5.38342 136.751 4.87716C136.65 4.43419 136.471 4.19161 136.144 4.07032ZM135.227 3.82247H134.863V2.86797C134.942 2.84688 135.089 2.82578 135.29 2.82578C135.78 2.82578 136.002 3.03145 136.002 3.33204C136.002 3.68009 135.654 3.82247 135.227 3.82247Z" fill="white"/>
</svg>
